<?xml version="1.0" encoding="iso-8859-1"?>
<!-- Generator: Adobe Illustrator 21.0.0, SVG Export Plug-In . SVG Version: 6.00 Build 0)  -->
<svg xmlns="http://www.w3.org/2000/svg" xmlns:xlink="http://www.w3.org/1999/xlink" version="1.1" id="Capa_1" x="0px" y="0px" viewBox="0 0 512 512" style="enable-background:new 0 0 512 512;" xml:space="preserve" width="512" height="512">
<g>
	<path d="M41.223,256.312c4.142,0,7.5-3.358,7.5-7.5V124.627c0-9.098,7.402-16.5,16.5-16.5h218.332c4.143,0,7.5-3.358,7.5-7.5   s-3.357-7.5-7.5-7.5H65.223c-17.369,0-31.5,14.131-31.5,31.5v124.185C33.723,252.954,37.081,256.312,41.223,256.312z"/>
	<path d="M389.472,108.127h57.306c9.098,0,16.5,7.402,16.5,16.5v124.185c0,4.142,3.357,7.5,7.5,7.5s7.5-3.358,7.5-7.5V124.627   c0-17.369-14.131-31.5-31.5-31.5h-57.306c-4.143,0-7.5,3.358-7.5,7.5S385.329,108.127,389.472,108.127z"/>
	<path d="M496.5,380.139h-18.223V278.813c0-4.142-3.357-7.5-7.5-7.5s-7.5,3.358-7.5,7.5v101.327h-13.049V149.464   c0-12.958-10.542-23.5-23.5-23.5h-13.174c-4.143,0-7.5,3.358-7.5,7.5s3.357,7.5,7.5,7.5h13.174c4.687,0,8.5,3.813,8.5,8.5v230.675   H76.771V149.464c0-4.687,3.813-8.5,8.5-8.5h66.524c4.142,0,7.5-3.358,7.5-7.5s-3.358-7.5-7.5-7.5H85.271   c-12.958,0-23.5,10.542-23.5,23.5v230.675H48.723V278.813c0-4.142-3.358-7.5-7.5-7.5s-7.5,3.358-7.5,7.5v101.327H15.5   c-8.547,0-15.5,6.953-15.5,15.5v19.078c0,17.369,14.131,31.5,31.5,31.5h449c17.369,0,31.5-14.131,31.5-31.5v-19.078   C512,387.092,505.047,380.139,496.5,380.139z M300.167,395.139v5.533c0,1.378-1.121,2.5-2.5,2.5h-83.333   c-1.378,0-2.5-1.122-2.5-2.5v-5.533H300.167z M497,414.717c0,9.098-7.401,16.5-16.5,16.5h-449c-9.098,0-16.5-7.402-16.5-16.5   v-19.078c0-0.276,0.224-0.5,0.5-0.5h181.333v5.533c0,9.649,7.851,17.5,17.5,17.5h83.333c9.649,0,17.5-7.851,17.5-17.5v-5.533H496.5   c0.275,0,0.5,0.224,0.5,0.5V414.717z"/>
	<path d="M157.07,272.471c-4.142,0-7.5,3.358-7.5,7.5s3.358,7.5,7.5,7.5h7.598l1.529,18.672   c1.438,17.566,16.371,31.326,33.996,31.326h10.823c17.625,0,32.557-13.76,33.995-31.326l1.529-18.672h15.768l1.528,18.673   c1.438,17.566,16.371,31.326,33.995,31.326h10.823c17.624,0,32.557-13.76,33.995-31.326l1.528-18.672h10.754   c4.143,0,7.5-3.358,7.5-7.5s-3.357-7.5-7.5-7.5H157.07z M230.06,304.92c-0.806,9.841-9.171,17.55-19.045,17.55h-10.823   c-9.874,0-18.24-7.709-19.045-17.55l-1.429-17.449h51.771L230.06,304.92z M327.699,304.919c-0.807,9.841-9.172,17.55-19.046,17.55   H297.83c-9.874,0-18.239-7.709-19.046-17.55l-1.428-17.449h51.771L327.699,304.919z"/>
	<path d="M270.742,127.635c-4.244,3.813-11.35,10.197-14.742,10.197c-3.392,0-10.497-6.383-14.742-10.196   c-3.25-2.919-6.319-5.677-9.251-7.542c-6.061-3.854-16.541-5.01-32.035-3.538c-13.24,1.259-23.878,11.295-25.871,24.406   l-11.782,77.562h-19.851c-7.886,0-14.302,6.416-14.302,14.302v10.509c0,7.886,6.416,14.302,14.302,14.302h227.063   c7.886,0,14.302-6.416,14.302-14.302v-10.509c0-7.886-6.416-14.302-14.302-14.302H349.68l-3.293-21.675   c-0.001-0.009-0.003-0.018-0.004-0.027l-8.486-55.859c-1.991-13.112-12.629-23.148-25.87-24.407   c-15.496-1.473-25.976-0.316-32.035,3.539C277.062,121.958,273.992,124.715,270.742,127.635z M179.475,205.474h153.051   l1.982,13.049H177.492L179.475,205.474z M368.833,242.637H143.167v-9.114h225.667V242.637z M288.043,132.75   c0.778-0.495,5.526-2.883,22.564-1.262c6.38,0.606,11.504,5.428,12.46,11.726v0l7.179,47.26H181.753l7.179-47.26   c0.957-6.298,6.081-11.12,12.46-11.727c17.038-1.621,21.786,0.767,22.565,1.263c1.882,1.197,4.502,3.551,7.276,6.043   c7.324,6.58,15.625,14.038,24.766,14.038c9.142,0,17.443-7.458,24.768-14.039C283.541,136.301,286.161,133.947,288.043,132.75z"/>
	<path d="M346.455,115.002c1.919,0,3.839-0.732,5.304-2.197l14.847-14.847c2.929-2.929,2.929-7.678,0-10.606   c-2.93-2.929-7.678-2.929-10.607,0l-14.847,14.847c-2.929,2.929-2.929,7.678,0,10.606   C342.616,114.27,344.536,115.002,346.455,115.002z"/>
	<path d="M320.493,103.986c4.143,0,7.5-3.358,7.5-7.5V73.283c0-4.142-3.357-7.5-7.5-7.5s-7.5,3.358-7.5,7.5v23.203   C312.993,100.628,316.351,103.986,320.493,103.986z"/>
	<path d="M349.972,133.464c0,4.142,3.357,7.5,7.5,7.5h23.203c4.143,0,7.5-3.358,7.5-7.5s-3.357-7.5-7.5-7.5h-23.203   C353.329,125.964,349.972,129.322,349.972,133.464z"/>
</g>















</svg>
