<svg id="Layer_5" enable-background="new 0 0 64 64" height="512" viewBox="0 0 64 64" width="512" xmlns="http://www.w3.org/2000/svg"><path d="m46.667 5h-1.334c-5.697 0-10.333 4.636-10.333 10.333 0 3.18 1.492 6.219 4 8.165v2.502c0 1.654 1.346 3 3 3h8c1.654 0 3-1.346 3-3v-2.502c2.508-1.946 4-4.985 4-8.165 0-5.697-4.636-10.333-10.333-10.333zm4.999 17-.666.5v3.5c0 .551-.448 1-1 1h-1v-4h-2v4h-2v-4h-2v4h-1c-.552 0-1-.449-1-1v-3.5l-.667-.5c-2.087-1.565-3.333-4.057-3.333-6.667 0-4.595 3.738-8.333 8.333-8.333h1.334c4.595 0 8.333 3.738 8.333 8.333 0 2.61-1.246 5.102-3.334 6.667z"/><path d="m50.586 12h-1.172c-1.331 0-2.414 1.083-2.414 2.414 0 .635.258 1.257.707 1.707l1.171 1.171c.449.45 1.071.708 1.708.708 1.331 0 2.414-1.083 2.414-2.414v-1.172c0-1.331-1.083-2.414-2.414-2.414zm.414 3.586c.001.338-.469.531-.707.293l-1.171-1.171c-.078-.078-.122-.185-.122-.294 0-.228.186-.414.414-.414h1.172c.228 0 .414.186.414.414z"/><path d="m42.586 12h-1.172c-1.331 0-2.414 1.083-2.414 2.414v1.172c0 1.331 1.083 2.414 2.414 2.414.637 0 1.259-.258 1.707-.707l1.173-1.172c.448-.45.706-1.072.706-1.707 0-1.331-1.083-2.414-2.414-2.414zm.293 2.707-1.173 1.172c-.236.237-.706.045-.706-.293v-1.172c0-.228.186-.414.414-.414h1.172c.228 0 .414.186.414.414 0 .109-.044.216-.121.293z"/><path d="m60 1h-28c-1.654 0-3 1.346-3 3v27h-2.445l-3.532-5.65c-.919-1.472-2.504-2.35-4.24-2.35h-12.783c-2.757 0-5 2.243-5 5v30c0 2.757 2.243 5 5 5h46c2.757 0 5-2.243 5-5v-19h3c1.654 0 3-1.346 3-3v-32c0-1.654-1.346-3-3-3zm-54 24h12.783c1.041 0 1.992.527 2.544 1.41l4.118 6.59h26.555c1.302 0 2.402.839 2.816 2h-51.816v-7c0-1.654 1.346-3 3-3zm46 36h-46c-1.654 0-3-1.346-3-3v-21h52v21c0 1.654-1.346 3-3 3zm9-25c0 .551-.448 1-1 1h-3v-1c0-2.757-2.243-5-5-5h-21v-27c0-.551.448-1 1-1h28c.552 0 1 .449 1 1z"/><circle cx="34" cy="6" r="1"/><circle cx="58" cy="6" r="1"/><path d="m19 27h-14v6h14zm-6 2v2h-2v-2zm-6 0h2v2h-2zm10 2h-2v-2h2z"/><path d="m51 57h2v2h-2z"/><path d="m37 57h12v2h-12z"/><path d="m37 53h16v2h-16z"/><path d="m37 49h16v2h-16z"/><path d="m7 47h-2v10c0 1.103.897 2 2 2h4v-2h-4z"/><path d="m13 57h2v2h-2z"/><path d="m17 57h2v2h-2z"/></svg>