<svg height="512" viewBox="0 0 64 64" width="512" xmlns="http://www.w3.org/2000/svg"><g id="Robotic_Arm-Robot-Technology-Engineer-Industry" data-name="Robotic Arm-Robot-Technology-Engineer-Industry"><path d="m55 12a3 3 0 1 0 -3-3 3 3 0 0 0 3 3zm0-4a1 1 0 1 1 -1 1 1 1 0 0 1 1-1z"/><path d="m48 40a3 3 0 1 0 3 3 3 3 0 0 0 -3-3zm0 4a1 1 0 1 1 1-1 1 1 0 0 1 -1 1z"/><path d="m16 12a3 3 0 1 0 -3-3 3 3 0 0 0 3 3zm0-4a1 1 0 1 1 -1 1 1 1 0 0 1 1-1z"/><path d="m10 39a6 6 0 1 0 6-6 6.006 6.006 0 0 0 -6 6zm10 0a4 4 0 1 1 -4-4 4 4 0 0 1 4 4z"/><path d="m15 29h2v2h-2z"/><path d="m8.636 31.636h2v2h-2z" transform="matrix(.707 -.707 .707 .707 -20.255 16.373)"/><path d="m6 38h2v2h-2z"/><path d="m8.636 44.364h2v2h-2z" transform="matrix(.707 -.707 .707 .707 -29.255 20.1)"/><path d="m15 47h2v2h-2z"/><path d="m21.364 44.364h2v2h-2z" transform="matrix(.707 -.707 .707 .707 -25.527 29.101)"/><path d="m24 38h2v2h-2z"/><path d="m21.364 31.636h2v2h-2z" transform="matrix(.707 -.707 .707 .707 -16.527 25.373)"/><path d="m62 54h-3.532l-4.7-5.64a1 1 0 0 0 -.768-.36h-.11a6.937 6.937 0 0 0 1.923-6.582l5.4-27.758a6.991 6.991 0 0 0 -10.103-9.66h-29.22a6.99 6.99 0 0 0 -10.89 8.587v6.413a1 1 0 0 0 1 1v4a1 1 0 0 0 .293.707l1.646 1.647-.312 2.186a10.96 10.96 0 0 0 -1.639.678l-2.166-1.624a1 1 0 0 0 -1.307.093l-2.828 2.828a1 1 0 0 0 -.093 1.307l1.624 2.166a10.96 10.96 0 0 0 -.678 1.639l-2.682.383a1 1 0 0 0 -.858.99v4a1 1 0 0 0 .858.99l2.682.383a10.96 10.96 0 0 0 .678 1.639l-1.624 2.166a1 1 0 0 0 .093 1.307l2.828 2.828a1 1 0 0 0 1.307.093l2.166-1.624a10.96 10.96 0 0 0 1.639.678l.383 2.682a1 1 0 0 0 .99.858h4a1 1 0 0 0 .99-.858l.383-2.682a10.96 10.96 0 0 0 1.639-.678l2.166 1.624a1 1 0 0 0 1.307-.093l2.828-2.828a1 1 0 0 0 .093-1.307l-1.624-2.166a10.96 10.96 0 0 0 .678-1.639l2.682-.383a1 1 0 0 0 .858-.99v-4a1 1 0 0 0 -.858-.99l-2.682-.383a10.96 10.96 0 0 0 -.678-1.639l1.624-2.166a1 1 0 0 0 -.093-1.307l-2.828-2.828a1 1 0 0 0 -1.307-.093l-2.166 1.624a10.96 10.96 0 0 0 -1.639-.678l-.312-2.186 1.646-1.647a1 1 0 0 0 .293-.707v-4a1 1 0 0 0 1-1v-5h25.917l-4.635 23.844a6.972 6.972 0 0 0 -.172 10.156h-.11a1 1 0 0 0 -.768.36l-4.7 5.64h-3.532a1 1 0 0 0 -1 1v6a1 1 0 0 0 1 1h28a1 1 0 0 0 1-1v-6a1 1 0 0 0 -1-1zm-7-50a5 5 0 1 1 -5 5 5.006 5.006 0 0 1 5-5zm-39 0a5 5 0 1 1 -5 5 5.006 5.006 0 0 1 5-5zm-4 14v-3.264a6.961 6.961 0 0 0 8 0v3.264zm8.584 13.266a1 1 0 0 0 1.111-.06l1.99-1.492 1.6 1.6-1.492 1.99a1 1 0 0 0 -.06 1.111 8.892 8.892 0 0 1 .975 2.356 1 1 0 0 0 .828.743l2.464.353v2.266l-2.463.352a1 1 0 0 0 -.828.743 8.892 8.892 0 0 1 -.975 2.356 1 1 0 0 0 .06 1.111l1.492 1.99-1.6 1.6-1.986-1.491a1 1 0 0 0 -1.111-.06 8.892 8.892 0 0 1 -2.356.975 1 1 0 0 0 -.743.828l-.357 2.463h-2.266l-.352-2.463a1 1 0 0 0 -.743-.828 8.892 8.892 0 0 1 -2.356-.975 1 1 0 0 0 -1.111.06l-1.99 1.492-1.6-1.6 1.491-1.986a1 1 0 0 0 .06-1.111 8.892 8.892 0 0 1 -.975-2.356 1 1 0 0 0 -.828-.743l-2.463-.357v-2.266l2.463-.352a1 1 0 0 0 .828-.743 8.892 8.892 0 0 1 .975-2.356 1 1 0 0 0 -.06-1.111l-1.492-1.99 1.6-1.6 1.99 1.492a1 1 0 0 0 1.111.06 8.892 8.892 0 0 1 2.356-.975 1 1 0 0 0 .743-.828l.353-2.464h2.266l.352 2.463a1 1 0 0 0 .743.828 8.892 8.892 0 0 1 2.356.975zm-1.584-7.68-1.414 1.414h-3.172l-1.414-1.414v-3.586h6zm3.315-11.586a6.912 6.912 0 0 0 0-6h26.37a6.892 6.892 0 0 0 -.259 5.381l-.121.619zm27.639 2h.156a6.967 6.967 0 0 0 7.725 1.4l-4.49 23.1a6.952 6.952 0 0 0 -7.752-2.055zm-6.954 29a5 5 0 1 1 5 5 5.006 5.006 0 0 1 -5-5zm.468 7h9.064l3.333 4h-15.73zm17.532 10h-26v-4h26z"/></g></svg>