<?xml version="1.0" encoding="iso-8859-1"?>
<!-- Generator: Adobe Illustrator 19.0.0, SVG Export Plug-In . SVG Version: 6.00 Build 0)  -->
<svg version="1.1" id="Capa_1" xmlns="http://www.w3.org/2000/svg" xmlns:xlink="http://www.w3.org/1999/xlink" x="0px" y="0px"
	 viewBox="0 0 512 512" style="enable-background:new 0 0 512 512;" xml:space="preserve">
<path style="fill:#4B4B5B;" d="M98.231,494.867L117.715,387h276.568l19.484,107.868c0.953,5.278-3.103,10.132-8.466,10.132H106.697
	C101.333,505,97.277,500.146,98.231,494.867z"/>
<path style="fill:#F6B545;" d="M236.175,474.189l7.229-45.678c0.32-2.022,2.063-3.511,4.11-3.511h16.971
	c2.047,0,3.79,1.489,4.11,3.511l7.229,45.678c0.4,2.526-1.552,4.811-4.11,4.811h-31.428
	C237.727,479,235.775,476.715,236.175,474.189z"/>
<path style="fill:#4B4B5B;" d="M165.223,124l20.427-113.085C186.059,8.649,188.031,7,190.335,7h131.328
	c2.303,0,4.277,1.649,4.686,3.915L346.776,124H165.223z"/>
<path style="fill:#F6B545;" d="M238.417,81.539l5.37-33.936c0.211-1.334,1.361-2.316,2.711-2.316H259.5
	c1.35,0,2.5,0.982,2.711,2.316l5.37,33.936c0.264,1.666-1.024,3.174-2.711,3.174h-23.743
	C239.44,84.713,238.152,83.205,238.417,81.539z"/>
<path style="fill:#C7C5CC;" d="M25.868,388c-10.129,0-18.369-8.24-18.369-18.368V141.368c0-10.128,8.24-18.368,18.369-18.368
	h460.263c10.128,0,18.369,8.24,18.369,18.368v228.264c0,10.128-8.24,18.368-18.369,18.368L25.868,388L25.868,388z"/>
<path style="fill:#B2AFBA;" d="M301.919,321.5c-109.628,0-198.5-88.871-198.5-198.5l0,0h-77.55
	c-10.145,0-18.369,8.224-18.369,18.369v228.263c0,10.144,8.224,18.368,18.369,18.368h460.263c10.145,0,18.369-8.224,18.369-18.369
	V321.5H301.919z"/>
<path style="fill:#8F8C9B;" d="M469,291c-6.893,0-12.5-5.607-12.5-12.5v-42c0-6.893,5.607-12.5,12.5-12.5s12.5,5.607,12.5,12.5v42
	C481.5,285.393,475.893,291,469,291z"/>
<path style="fill:#7FE4F4;" d="M71.499,355.7V155.3c0-5.689,4.612-10.3,10.3-10.3h342.4c5.689,0,10.3,4.612,10.3,10.3v200.4
	c0,5.689-4.612,10.3-10.3,10.3h-342.4C76.111,366,71.499,361.388,71.499,355.7z"/>
<polygon style="fill:#4B4B5B;" points="95.88,366 143.436,145 368.563,145 416.118,366 "/>
<path style="fill:#F6B545;" d="M274.979,319.917l-5.53-35.505l-1.675-8.774l-24.454,0.706l-0.772,8.068l-5.53,35.505
	c-0.58,3.722,2.298,7.083,6.065,7.083h25.83C272.682,327,275.56,323.639,274.979,319.917z"/>
<path style="fill:#3F3F4C;" d="M255.997,294.786c-4.835,0-9.505-0.78-13.148-2.196c-14.537-5.651-48.349-20.099-48.349-32.19
	c0-15.108,27.589-27.4,61.5-27.4s61.5,12.291,61.5,27.4c0,12.075-33.811,26.533-48.348,32.188
	C265.505,294.006,260.834,294.786,255.997,294.786z"/>
<path style="fill:#ED2E4E;" d="M250.738,292.711c-7.387-6.445-44.238-39.783-44.238-63.211c0-27.294,22.206-49.5,49.5-49.5
	s49.5,22.206,49.5,49.5c0,23.395-36.853,56.758-44.241,63.209l0,0C258.245,295.34,253.753,295.341,250.738,292.711L250.738,292.711z
	"/>
<path style="fill:#D60B37;" d="M242.499,216.159c0-14.229,6.043-27.065,15.687-36.103c-0.726-0.032-1.454-0.056-2.187-0.056
	c-27.294,0-49.5,22.206-49.5,49.5c0,23.428,36.851,56.766,44.238,63.211c3.014,2.63,7.508,2.629,10.521-0.002l0,0
	c3.024-2.64,10.984-9.792,19.333-18.921C267.693,261.675,242.499,235.535,242.499,216.159z"/>
<path style="fill:#FFFFFF;" d="M255.999,247c-9.649,0-17.5-7.851-17.5-17.5s7.851-17.5,17.5-17.5s17.5,7.851,17.5,17.5
	S265.648,247,255.999,247z"/>
<path d="M42.999,233c-4.142,0-7.5,3.357-7.5,7.5v64c0,4.143,3.358,7.5,7.5,7.5s7.5-3.357,7.5-7.5v-64
	C50.499,236.357,47.141,233,42.999,233z"/>
<path d="M42.945,197c-0.017,0-0.035,0-0.053,0c-4.142,0.028-7.477,3.41-7.448,7.552l0.11,16c0.029,4.125,3.381,7.448,7.499,7.448
	c0.017,0,0.035,0,0.053,0c4.142-0.028,7.477-3.41,7.448-7.552l-0.11-16C50.415,200.323,47.063,197,42.945,197z"/>
<path d="M469,217c-10.752,0-19.5,8.748-19.5,19.5v42c0,10.752,8.748,19.5,19.5,19.5s19.5-8.748,19.5-19.5v-42
	C488.5,225.748,479.752,217,469,217z M473.5,278.5c0,2.481-2.019,4.5-4.5,4.5c-2.481,0-4.5-2.019-4.5-4.5v-42
	c0-2.481,2.019-4.5,4.5-4.5c2.481,0,4.5,2.019,4.5,4.5V278.5z"/>
<path d="M255.999,205c-13.509,0-24.5,10.99-24.5,24.5s10.991,24.5,24.5,24.5c13.509,0,24.5-10.99,24.5-24.5S269.508,205,255.999,205
	z M255.999,239c-5.238,0-9.5-4.262-9.5-9.5s4.262-9.5,9.5-9.5c5.238,0,9.5,4.262,9.5,9.5S261.237,239,255.999,239z"/>
<path d="M486.13,116H352.445L332.604,6.167C331.961,2.597,328.852,0,325.224,0h-138.45c-3.628,0-6.736,2.597-7.38,6.167L159.554,116
	H25.868c-13.989,0-25.369,11.38-25.369,25.368v228.264C0.499,383.62,11.879,395,25.868,395h83.29L89.619,503.167
	c-0.395,2.187,0.2,4.437,1.625,6.142c1.424,1.706,3.533,2.691,5.755,2.691h318c2.222,0,4.331-0.985,5.755-2.691
	c1.425-1.705,2.02-3.955,1.625-6.142L402.841,395h83.29c13.988,0,25.369-11.38,25.369-25.368V141.368
	C511.5,127.38,500.12,116,486.13,116z M193.042,15h125.917l18.244,101H174.796L193.042,15z M406.023,497H105.975L124.4,395h263.199
	L406.023,497z M496.5,369.632c0,5.717-4.651,10.368-10.369,10.368H25.868c-5.717,0-10.369-4.651-10.369-10.368V141.368
	c0-5.717,4.651-10.368,10.369-10.368h460.263c5.717,0,10.369,4.651,10.369,10.368L496.5,369.632L496.5,369.632z"/>
<path d="M434,138h-362c-4.142,0-7.5,3.357-7.5,7.5v220c0,4.143,3.358,7.5,7.5,7.5H96.47c0.012,0,0.024,0.002,0.037,0.002
	c0.008,0,0.015-0.002,0.023-0.002h318.94c0.008,0,0.015,0.002,0.023,0.002c0.012,0,0.024-0.002,0.037-0.002H434
	c4.142,0,7.5-3.357,7.5-7.5v-220C441.5,141.357,438.141,138,434,138z M90.441,358H79.499V153h55.054L90.441,358z M426.5,358h-4.942
	l-22.304-103.653c-0.743-3.455-3.798-5.922-7.332-5.922l0,0c-4.777,0-8.337,4.407-7.332,9.078L406.214,358h-300.43l44.112-205
	h212.205l11.986,55.7c0.743,3.455,3.798,5.922,7.332,5.922l0,0c4.777,0,8.337-4.407,7.332-9.078L377.445,153H426.5V358z"/>
<path d="M275.019,424.328c-0.577-3.645-3.718-6.328-7.408-6.328h-23.225c-3.689,0-6.831,2.684-7.408,6.328l-8.388,53
	c-0.343,2.166,0.28,4.375,1.705,6.043s3.51,2.629,5.704,2.629h40c2.194,0,4.278-0.961,5.703-2.629s2.048-3.877,1.705-6.043
	L275.019,424.328z M244.779,471l6.014-38h10.412l6.014,38H244.779z"/>
<path d="M268.826,44.615c-0.577-3.645-3.718-6.328-7.408-6.328h-16.838c-3.689,0-6.831,2.684-7.408,6.328l-6.081,38.426
	c-0.343,2.166,0.28,4.375,1.705,6.043s3.509,2.629,5.703,2.629h29c2.194,0,4.278-0.961,5.703-2.629s2.048-3.877,1.705-6.043
	L268.826,44.615z M247.279,76.713l3.707-23.426h4.025l3.707,23.426H247.279z"/>
<path d="M312.5,229.5c0-31.154-25.346-56.5-56.5-56.5s-56.5,25.346-56.5,56.5c0,19.688,20.326,43.294,35.623,58.274
	c-0.194,0.498-0.341,1.022-0.427,1.572l-5.607,36c-0.337,2.165,0.289,4.368,1.714,6.032s3.506,2.622,5.697,2.622h39
	c2.191,0,4.272-0.958,5.697-2.622s2.051-3.867,1.714-6.032l-5.607-36c-0.086-0.55-0.233-1.073-0.427-1.572
	C292.174,272.794,312.5,249.188,312.5,229.5z M245.258,319l2.991-19.205c1.403,1.198,2.444,2.057,3.012,2.519
	c1.379,1.124,3.058,1.686,4.738,1.686c1.68,0,3.359-0.563,4.738-1.687c0.567-0.462,1.609-1.321,3.012-2.519L266.74,319H245.258z
	 M255.997,286.683c-17.734-15.472-41.498-41.513-41.498-57.183c0-22.883,18.617-41.5,41.5-41.5s41.5,18.617,41.5,41.5
	C297.5,245.144,273.73,271.198,255.997,286.683z"/>
<g>
</g>
<g>
</g>
<g>
</g>
<g>
</g>
<g>
</g>
<g>
</g>
<g>
</g>
<g>
</g>
<g>
</g>
<g>
</g>
<g>
</g>
<g>
</g>
<g>
</g>
<g>
</g>
<g>
</g>
</svg>
