<svg id="Capa_1" enable-background="new 0 0 512.002 512.002" height="512" viewBox="0 0 512.002 512.002" width="512" xmlns="http://www.w3.org/2000/svg"><g><g><path d="m418.026 264.517c-5.183-1.794-11.094 2.408-16.748.883-8.692 1.851-4.62 21.736-1.208 24.824.498 2.574 17.977 13.153 19.962 3.157-.656-2.398 1.274-28.04-2.006-28.864z" fill="#fff"/><path d="m367.029 261.84c-.306-13.134-19.182 9.808-32.606-6.928-7.349-8.228-.473-17.269-4.396-21.917-1.226-.97-2.902-1.135-4.287-.436-9.929 5.318-25.209 4.122-32.111-4.629-5.542-6.519-7.855-17.868 2.279-30.165.977-1.185 1.189-2.824.546-4.218s-2.026-2.297-3.561-2.325c0 0-91.128-1.631-91.151-1.631-2.141-.038-4.048 1.849-4 4v157.73c0 2.197 1.773 3.983 3.97 4 0 0 182.02 1.39 182.03 1.39 1.572 0 2.999-.921 3.647-2.355 18.836-42.232-26.943-52.732-20.36-92.516zm-148.768-17.666v-23.757l27.908.309 2.329 22.181zm130.212 84.375-59.983-1.593c.854-15.356 2.216-14.907-13.429-14.656v-34.069h60.73c.438 15.059-3.535 16.892 13.943 16.08z" fill="#fff"/><path d="m501.656 464.501c-5.065-3.455-11.252-3.225-16.786-.437 15.845-17.884-11.187-44.004-28.744-25.792 9.561-22.268-23.559-40.719-37.498-21.016 2.883-19.197-25.182-21.806-31.636-2.995-.218-19.492-28.16-26.916-38.114-10.272-1.832-18.796-26.579-12.487-30.214 4.112-4.223-21.43-33.65-22.479-39.533-1.821-3.338-21.257-36.717-17.941-34.608 4.868-9.968-17.444-33.983-21.643-35.285 1.098-5.935-10.699-20.947-19.756-23.869-2.273-5.258-12.849-24.232-8.075-24.095 4.465-7.842-14.82-33.104-14.18-32.589 4.964-10-15.012-35.763-4.824-32.833 12.945-12.77-16.876-41.588-3.011-36.231 17.543-17.315-8.54-42.132.935-28.308 20.862-7.952-.676-17.836-1.812-26.156 7.442-7.023 11.444 3.654 20.376 16.844 19.534 81.667 2.954 202.339 2.919 296.574 2.292 50.012-.25 104.518-.508 154.477-.23 32.778 2.05 45.791-19.473 28.604-35.289z" fill="#42a571"/><path d="m452.871 390.084c-6.831-5.089-13.282-9.895-16.402-18.069-.521-1.364-1.743-2.337-3.189-2.536-5.206 2.472-43.86 1.307-56.281 1.699-5.209 1.05-5.215 14.59-9.035 19.393-1.142 2.216.251 5.148 2.698 5.648 13.567 2.034 13.469 19.46 20.841 12.466 6.287-8.384 22.135-9.443 26.131 2.75.469 1.679 2.099 2.896 3.839 2.877 9.417-5.81 21.902-6.392 29.946 2.715 6.952 6.204 3.196 13.756 6.964 17.794 3.737 2.074 7.624-2.345 11.573-1.659 2.106-.034 3.826-1.695 3.933-3.799 1.143-22.733-10.115-31.138-21.018-39.279z" fill="#b25932"/><path d="m470.654 250.262c-3.352-1.188-6.506 1.62-9.982 1.978-2.116.505-3.441 2.609-2.982 4.735 3.157 14.622-5.434 30.959-19.15 36.419-1.536.611-2.538 2.105-2.521 3.758l.29 27.52c-.053 2.825 3.2 4.866 5.718 3.57 26.033-12.104 43.398-51.331 28.627-77.98z" fill="#b25932"/><path d="m387.547 351.311c-1.065 2.497.975 5.522 3.695 5.46 0 0 18.119.13 18.129.13 6.195.095 11.52-5.263 11.32-11.411 0 0-.57-45.09-.57-45.09-.027-2.123-1.708-3.855-3.829-3.946-7.111-.303-12.329-2.593-15.508-6.806-7.926-8.722 1.463-23.659-5.322-25.392-7.544-2.094-13.94-7.669-16.298-14.203-.467-1.293-1.565-2.256-2.907-2.55-3.657-.455-6.823 3.869-8.578 6.49-6.763 23.281 2.881 37.966 11.389 50.922 8.959 13.645 16.698 25.428 8.479 46.396z" fill="#b25932"/><g fill="#c2e9f9"><path d="m261.081 49.828c-4.193 0-8.274 1.352-12.186 4.053 8.201-51.088-67.91-55.899-80.062-4.702-18.551-14.54-50.294-1.155-51.816 23.757-9.416-2.401-31.097.24-28.465 13.094 1.397 3.692 5.889 5.518 13.737 5.581 38.039.311 77.262-.523 114.562-1.33 19.928-.429 40.534-.873 60.943-1.141 1.577-.021 2.995-.967 3.62-2.415 7.082-14.628-3.307-37.101-20.333-36.897z"/><path d="m247.439 223.283c-.212-2.019-1.902-3.559-3.933-3.581 0 0-22.23-.251-22.245-.251-2.148-.042-4.043 1.851-4 4 .442 2.252-1.184 19.178 1.231 20.477.787 2.424 24.936-.278 26.856.11 2.242-.047 4.094-2.189 3.812-4.416-.001.001-1.721-16.339-1.721-16.339z"/><path d="m346.621 293.311h-53.771c-2.138 0-3.897 1.681-3.996 3.816l-1.229 26.73c-.142 2.172 1.711 4.169 3.89 4.182 0 0 54.042 1.432 54.078 1.432 2.145 0 3.916-1.698 3.995-3.853l1.03-28.16c.125-2.2-1.792-4.193-3.997-4.147z"/><path d="m135.375 404.716c-.865-3.468 2.204-16.124-4.253-15.824-5.683 1.389-22.215-1.97-22.701 5.102 0 .001-.059 15.181-.059 15.181-.054 2.154 1.851 4.061 4 4.016 15.04-1.527 11.233 12.236 21.689-4.847 1.033-.896 1.532-2.276 1.324-3.628z"/><path d="m182.691 372.001c-.006 0-17.047.07-17.047.07-5.934-.179-3.572 9.691-4.133 13.085-.078 2.165 1.812 4.098 3.979 4.065 6.076-.729 13.941 1.86 19.85-.753 2.569-3.369.842-8.905 1.352-12.479.035-2.144-1.857-4.03-4.001-3.988z"/><path d="m157.208 332.436c4.126-.923.602-24.813 1.302-27.522-.064-2.166-1.839-3.883-3.998-3.883-.02 0-18.019.261-18.019.261-2.154-.011-4.022 1.917-3.941 4.069.817 2.779-1.578 26.241 2.571 27.104-.652.344-1.196.896-1.533 1.552-1.148-3.962-17.687-1.493-20.499-2.167-2.148-.041-4.043 1.852-4 4.001v14.79c0 2.197 1.773 3.983 3.97 4 2.855-.661 19.532 2.026 20.756-1.946.669 1.251 1.968 2.113 3.482 2.126 2.216-.429 20.149 1.351 21.399-1.05 2.333-1.47.342-15.643.712-17.895-.044-1.514-.934-2.797-2.202-3.44z"/><path d="m128.261 171.291c2.153.042 4.049-1.858 4-4.012 0 0-.05-16.12-.05-16.12.036-2.143-1.857-4.031-4-3.988-.026 0-17.871.361-17.871.361-2.162.043-3.898 1.798-3.919 3.961l-.15 15.76c-.062 2.162 1.836 4.082 4 4.038z"/><path d="m109.091 215.891c1.531 28.282-7.427 27.464 19.33 27.319 2.173.044 4.081-1.894 3.999-4.067-.805-2.769 1.581-25.51-2.547-26.396 3.939-1.224 1.124-17.726 1.748-20.544-.037-2.154-1.774-3.893-3.928-3.931 0 0-14.578-.261-14.602-.261-2.147-.042-4.043 1.851-4 4 .666 2.871-1.852 19.151 2.1 20.381-1.29.655-2.109 2.058-2.1 3.499z"/><path d="m159.573 243.65s15.918.23 15.938.23c2.128.041 4.015-1.819 4-3.95 0 0 .28-22.34.28-22.34.027-2.188-1.708-3.992-3.895-4.049 0 0-16.879-.441-16.914-.441-2.189-.045-4.108 1.925-3.998 4.115 0 0 .649 22.55.649 22.55.061 2.142 1.799 3.855 3.94 3.885z"/></g><path d="m214.261 371.861c-.006 0-24.586.1-24.586.1-2.207.009-3.989 1.804-3.983 4.011 1.401 5.982-4.184 26.385 3.438 26.289 10.906-3.908 11.399 5.301 19.28 6.431 1.358-.278 2.475-1.237 2.954-2.535.977-4.937 6.227-5.849 6.897-10.175-.001 0-.001-20.121-.001-20.121.042-2.147-1.85-4.044-3.999-4z" fill="#dcdeea"/><path d="m186.181 171.291h25.521c2.209 0 4-1.791 4-4-.467-1.279 1.195-45.023-1.193-44.601-.519-2.373-26.04-.329-27.77-.759-2.161.034-3.904 1.779-3.938 3.94l-.62 41.36c-.075 2.169 1.828 4.105 4 4.06z" fill="#dcdeea"/><path d="m197.56 354.1c3.372-1.969.053-157.813 1.184-160.634-.002-2.175-1.749-3.954-3.93-3.994-3.499.946-15.887-2.991-15.713 3.738 1.091 2.826-4.218 158.74-.879 160.744 1.427 2.377 14.298.823 16.519 1.307 1.056 0 2.069-.417 2.819-1.161z" fill="#dcdeea"/><path d="m106.566 187.909c-7.115-.913-13.416 4.219-13.325 11.362 0 0 1.8 144.191 1.8 144.191.074 6.087 4.958 11.003 11.05 11.119 2.147.038 4.043-1.848 4-4v-158.7c0-2.025-1.514-3.731-3.525-3.972z" fill="#dcdeea"/><path d="m105.491 372.331c-.006 0-17.269.08-17.269.08-2.155.01-3.915 1.726-3.979 3.881 1.158 2.641-4.648 51.339 1.475 50.253 16.518 9.293 7.091-6.453 21.263-11.83 1.436-.641 2.363-2.064 2.369-3.637l.141-34.73c.05-2.153-1.845-4.061-4-4.017z" fill="#dcdeea"/><path d="m103.271 171.291c2.194 0 3.979-1.768 4-3.963l.37-40.08c.062-2.161-1.838-4.082-4-4.037-.021 0-19.001.29-19.001.29-2.185.033-3.938 1.814-3.938 4v39.79c0 2.209 1.791 4 4 4z" fill="#dcdeea"/><path d="m38.954 251.032c-.403-6.697-12.531-1.848-16.131-2.172-2.115.26-3.656 2.133-3.502 4.26l13.891 191.8c.849 5.862 6.87 2.635 10.896 2.802 3.314-.609 8.198 2.428 11.404.064 4.507-2.335-17.83-193.41-16.558-196.754z" fill="#dcdeea"/><path d="m182.498 388.553c-6.041.957-20.174-3.753-21.107 3.597.484 2.811-1.757 11.79 1.869 13.268 3.691 1.801 6.819-2.686 10.8-2.011 3.624-.55 6.367 3.234 9.724 1.609 3.781-2.622 1.804-8.135 2.584-12.303.129-2.159-1.707-4.134-3.87-4.16z" fill="#65beef"/><path d="m158.602 269.886c-4.121.9-.592 25.459-1.29 28.16.045 1.519.939 2.802 2.208 3.443-4.116.911-.608 24.938-1.308 27.636-.116 6.307 11.913 3.195 15.374 3.922 2.361.523 4.806-1.446 4.776-3.876-.747-2.777 2.398-26.98-1.746-27.905 1.256-.663 2.126-1.959 2.146-3.474-.737-2.796 2.385-26.763-1.747-27.717 4.061-.984 1.651-20.374 2.408-23.141.027-2.208-1.737-4.021-3.944-4.052 0 0-15.628-.22-15.646-.22-2.189-.044-4.109 1.925-3.998 4.116.797 2.832-1.302 22.099 2.767 23.108z" fill="#65beef"/><path d="m162.51 385.287c-.471-3.454 2.27-13.337-3.849-13.186-2.11.455-22.732-1.083-23.765 1.297-2.166 1.587-.625 10.075-.935 12.288.004 2.117 1.884 3.957 3.999 3.915 5.746-1.461 24.342 2.911 24.55-4.314z" fill="#65beef"/><path d="m134.815 213.46s16.921.452 16.956.452c2.189.045 4.109-1.926 3.998-4.116 0 0-.5-17.22-.5-17.22-.061-2.135-1.79-3.845-3.926-3.883 0 0-16.688-.3-16.712-.3-2.172-.043-4.081 1.894-3.999 4.068l.29 17.07c.036 2.139 1.752 3.871 3.893 3.929z" fill="#65beef"/><path d="m132.396 146.892c.27.264.581.469.906.644-3.923 1.204-1.4 16.952-2.042 19.768.008 2.205 1.797 3.988 4.001 3.988h15.351c2.177 0 3.954-1.741 3.999-3.918-.611-2.893 2.244-18.806-1.689-20.123 3.975-1.069 1.796-17.91 2.52-20.697.088-2.178-1.822-4.126-4-4.081-.021 0-16.362.25-16.362.25-2.189.034-3.945 1.821-3.939 4.011.435 2.195-1.092 18.88 1.255 20.158z" fill="#65beef"/><path d="m130.84 269.318c4.028-1.107 1.028-20.387 1.7-23.176-.038-2.16-1.783-3.9-3.943-3.93 0 0-15.488-.22-15.507-.22-2.147-.042-4.043 1.851-4 4 .716 2.854-1.94 21.995 2.1 23.12-4.175.671-1.306 26.896-2.102 29.519-.041 2.148 1.853 4.043 4.001 4 .019 0 16.409-.24 16.409-.24 2.152.01 4.021-1.916 3.94-4.068-.831-2.73 1.58-28.252-2.598-29.005z" fill="#65beef"/><path d="m81.274 372.441c-8.258.648-19.917.409-19.842-10.231-2.342-1.431 5.484-123.6-4.483-117.53-.004.001-15.514 1.9-15.514 1.9-2.147.263-3.696 2.185-3.497 4.339l16.99 183.61c.232 3.757 5.656 5.002 7.454 1.62 6.935-13.528 20.87-7.068 21.507-14.269-.001-.001 1.35-45.321 1.35-45.321.109-2.18-1.783-4.143-3.965-4.118z" fill="#65beef"/><path d="m407.832 193.261s-105.508-1.88-105.531-1.88c-12.336 6.256-16.949 22.576-12.985 31.559 7.771 16.351 27.991 18.243 44.288 6.146-8.443 13.619-2.757 33.357 14.457 33.253 11.559.118 21.498-8.61 28.837-16.874 1.995 13.872 15.338 21.119 27.835 21.119 5.065-.534 13.888-.257 14.88-6.293-.001-.001-.711-55.901-.711-55.901-.08-6.116-4.937-11.004-11.07-11.129z" fill="#b6d366"/><path d="m475.207 186.031c31.04-11.018 23.288-55.271-9.841-55.131 30.98-24.114 4.091-75.502-32.992-64.621 11.297-77.496-108.865-69.921-87.311 5.933-24.047-5.474-45.558 25.086-32.162 45.93-24.039 2.795-32.985 34.038-17.455 51.354.739 1.119 1.995 1.795 3.336 1.794h125.779c5.605 0 10.213 4.558 10.271 10.161l.71 68.99c.407 5.551 7.789 4.046 11.65 4.487 43.693 1.123 73.553-53.074 28.015-68.897z" fill="#b6d366"/><path d="m179.801 122.041c-.02 0-21.419.32-21.419.32-2.154.032-3.895 1.764-3.939 3.918.62 2.89-2.272 19.461 1.679 20.753-3.963 1.096-1.792 17.382-2.509 20.178-.088 2.177 1.821 4.126 4 4.081h21.569c2.186 0 3.967-1.754 4-3.939-.64-2.886 2.177-19.408-1.79-20.683 3.952-1.092 1.712-17.779 2.41-20.568.075-2.169-1.83-4.105-4.001-4.06z" fill="#548dc8"/><path d="m176.17 189.131s-17.865-.311-17.889-.311c-2.19-.044-4.108 1.926-3.998 4.116 0 0 .5 17.27.5 17.27.062 2.122 1.77 3.827 3.893 3.883 0 0 17.17.452 17.205.452 2.127.041 4.015-1.819 4-3.95 0 0 .22-17.41.22-17.41.027-2.201-1.73-4.011-3.931-4.05z" fill="#548dc8"/><path d="m174.271 331.991c-3.779.95-16.035-2.707-15.857 4.136 0 .001.439 15.011.439 15.011.063 2.15 1.815 3.865 3.966 3.883 3.496-.718 15.428 2.589 15.262-3.859 0 0 .19-15.12.19-15.12.073-2.166-1.841-4.097-4-4.051z" fill="#548dc8"/><path d="m158.391 388.221c-5.862 1.18-24.174-2.974-24.279 4.466.508 3.677-1.732 14.556 5.234 12.928 10.168-4.289 20.702 11.137 22.805.636 0-.001.239-13.961.239-13.961.081-2.173-1.825-4.113-3.999-4.069z" fill="#548dc8"/><path d="m131.432 239.379c.025 1.515.9 2.808 2.16 3.465-4.015 1.116-1.044 20.389-1.71 23.184.026 1.515.901 2.809 2.161 3.466-4.156.791-.855 26.205-1.601 28.866.039 2.185 1.821 3.931 3.999 3.931.02 0 17.929-.261 17.929-.261 2.169.011 4.046-1.946 3.939-4.114-.861-2.75 1.272-27.501-2.914-28.253 3.994-1.165.803-20.415 1.435-23.216-.044-1.519-.938-2.809-2.215-3.45 4.098-.99.671-23.465 1.354-26.201-.061-2.124-1.771-3.829-3.895-3.884-29-1.294-19.523-1.767-20.642 26.467z" fill="#548dc8"/><path d="m134.76 376.134c-.047-2.176-1.824-3.913-3.999-3.913-.006 0-18.287.08-18.287.08-6.304-.211-3.355 11.207-4.023 14.676.516 7.805 17.284 1.847 22.7 2.912 6.034-.05 3.125-10.324 3.609-13.755z" fill="#548dc8"/><path d="m129.562 301.391c-.02 0-16.529.24-16.529.24-2.186.032-3.942 1.813-3.942 4v23.22c0 2.205 1.783 3.994 3.988 4 0 0 16.878.05 16.882.05 2.173.043 4.081-1.894 3.999-4.068 0 0-.4-23.51-.4-23.51-.037-2.185-1.82-3.932-3.998-3.932z" fill="#548dc8"/><path d="m128.271 148.17c2.183-.043 3.928-1.828 3.921-4.011l-.051-17.34c.036-2.144-1.856-4.032-4-3.988-.02 0-17.561.271-17.561.271-2.171.034-3.919 1.792-3.938 3.963l-.159 17.42c-.063 2.161 1.839 4.081 4 4.037.025-.001 17.788-.352 17.788-.352z" fill="#548dc8"/><path d="m332.791 277.231h-54.73c-2.209 0-4 1.791-4 4v28.09c0 2.209 1.791 4 4 4 3.287-.325 11.146 1.557 11.226-3.816 0 0 .698-15.193.698-15.193h42.807c2.209 0 4-1.791 4-4-.511-3.43 2.024-13.252-4.001-13.081z" fill="#86cefd"/><path d="m424.561 170.291h-352.86c-6.215 0-11.271 5.056-11.271 11.27l.001 180.558c-.066 2.897 1.104 5.796 3.211 7.952 2.118 2.168 5.008 3.412 7.925 3.412 4.917-.285 349.97-1.302 354.803-1.598l-.001.036c5.967.262 11.625-5.458 11.311-11.381 0 0-1.849-179.088-1.849-179.088-.062-6.155-5.118-11.161-11.27-11.161zm-7.773 182.462c-1.989 2.052-4.63 3.205-7.27 3.149l-.001.024c-61.567-.553-283.464-2.127-303.285-2.335-5.548-.043-10.12-4.593-10.191-10.14l-1.802-144.272c-.085-2.554.972-5.16 2.898-7.152 1.952-2.018 4.56-3.175 7.155-3.175.109 0 303.521 5.418 303.521 5.418 5.585.093 10.016 4.544 10.088 10.131l1.792 141.184c.086 2.558-.972 5.17-2.905 7.168z" fill="#9499a9"/></g><g><path d="m106.202 357.588c.014.046 303.193 2.285 303.225 2.318 7.734.163 14.528-6.718 14.265-14.451l-1.795-141.102c-.1-7.76-6.255-13.947-14.014-14.086l-303.117-5.406c-7.835-.295-14.789 6.608-14.522 14.445 0 0 1.798 144.19 1.798 144.19.096 7.711 6.448 14.033 14.16 14.092zm184.376-127.065c8.609 10.363 24.842 11.721 36.959 5.609-5.405 22.478 14.93 36.626 35.541 25.068-6.783 41.969 38.493 51.973 20.665 91.508l-181.999-1.391v-157.725l91.082 1.624c-10.919 13.242-9.442 26.836-2.248 35.307zm-95.834 120.741-13.663-.104 2.025-157.901 11.639.208v157.797zm-81.652-78.651 15.91.24.436 25.54-16.346.236zm22.911.346 17.595.266.716 24.81-17.878.258zm24.602.371 14.47.219-.31 24.19-13.45.194zm14.559-6.78-14.762-.223-.568-19.669 15.582.222zm-21.768-.329-17.512-.265-.336-19.645 17.28.246zm-24.514-.371-15.79-.238v-19.621l15.454.22zm-15.79 39.779 16.466-.237.402 23.514-16.868-.056zm23.463-.339 17.96-.259.691 23.958-18.247-.06zm24.962-.36 13.158-.19-.313 24.38c-.22-.044-.446-.07-.678-.071l-11.471-.038zm13.989-65.049-15.874-.226-.651-22.554 16.811.442zm-22.88-.327-17.198-.245-.39-22.839 16.935.446zm-24.2-.344-15.334-.219v-23.098l14.943.393zm-15.334 96.64 16.987.056.254 14.866-17.241-.132zm23.987.079 18.33.061.433 14.977-18.508-.141zm25.335.084 11.246.037c.21.001.414-.026.614-.061l-.194 15.117-11.232-.086zm13.469-125.47-17.103-.45-.499-17.276 17.825.318zm-24.113-.635-16.853-.444-.291-17.07 16.647.297zm-23.855-.628-14.823-.39v-16.88l14.532.259zm286.663 141.482c-1.39 1.397-3.247 2.121-5.21 2.143l-18.098-.138c17.47-44.57-32.599-53.421-19.751-97.659 1.339-1.187 2.631-2.424 3.882-3.691 2.892 8.007 10.492 14.332 18.985 16.692-3.995 16.708 2.035 31.499 21.732 32.338l.574 45.098c.026 1.967-.725 3.821-2.114 5.217zm1.451-57.33c-13.835-.364-18.089-10.932-14.746-24.036 4.847.46 9.816-.116 14.42-1.629zm-1.132-88.991.711 55.898c-13.422 6.049-33.326-.38-34.867-16.412-.241-2.908-4.175-4.176-6.069-1.954-5.283 5.796-11.103 11.866-18.489 14.776-20.021 7.385-28.65-12.5-17.651-27.948 2.376-3.186-2.082-7.324-5.083-4.722-26.218 22.505-58.551-2.602-31.146-28.694l105.456 1.881c3.953.07 7.088 3.222 7.138 7.175zm-317.653-5.223c0-4.893 4.169-7.901 8.848-7.332v158.693c-3.853-.117-7.001-3.296-7.05-7.169 0-.001-1.798-144.192-1.798-144.192z"/><path d="m90.244 199.305v.001z"/><path d="m77.519 290.507c1.953.002 3.535-1.604 3.501-3.557l-.524-32.257c-.011-4.545-7.14-4.423-7 .114l.524 32.257c.032 1.913 1.593 3.443 3.499 3.443z"/><path d="m76.96 213.994c1.921.06 3.547-1.462 3.601-3.396l.414-14.061c.022-4.615-6.755-4.819-6.996-.205 0 0-.414 14.061-.414 14.061-.058 1.932 1.462 3.544 3.395 3.601z"/><path d="m77.77 326.935c-1.933.051-3.458 1.659-3.407 3.591l.414 15.717c.049 1.934 1.67 3.461 3.592 3.406 1.933-.051 3.457-1.659 3.406-3.591l-.414-15.715c-.051-1.934-1.65-3.441-3.591-3.408z"/><path d="m503.331 462.009c-3.615-2.446-7.715-3.421-11.99-2.972 4.532-11.459-2.988-25.156-14.502-28.787 2.276-41.308-31.304-37.921-38.407-61.913 4.235-4.786 1.332-30.151 1.954-36.099 29.769-11.403 46.023-51.629 34.958-81.26 26.193-13.08 37.49-50.286 7.587-65.178 24.059-15.02 17.333-51.995-10.632-57.427 23.7-28.008.71-71.173-36.491-65.874 6.422-76.603-111.152-68.782-94.699 6.216-23.55-1.599-42.544 25.911-32.655 47.338-22.131 5.715-30.262 32.535-18.246 51.238h-71.51v-45.301c.038-1.902-1.66-3.563-3.554-3.499 0 0-133.999 2.068-133.999 2.068-1.912.029-3.446 1.587-3.446 3.5v43.234c-9.571-1.377-20.396 3.316-20.265 14.269v60.037l-38.275 4.69c-1.852.227-3.2 1.866-3.065 3.727l14.343 198.126c-5.634 4.249-7.472 12.463-4.807 19.12-8.152-.014-17.092 2.487-21.913 7.92-2.785 3.139-5.441 8.567-2.284 16.603 3.797 7.379 12.591 8.673 20.465 8.947 150.666 4.942 300.331 1.263 451.158 2.061 28.439 1.413 35.99-11.763 37.907-17.496 2.862-8.564-.347-18.357-7.632-23.288zm-52.854-68.717c10.508 7.836 20.451 15.263 19.41 35.867-3.178.051-6.311.84-9.286 2.333 1.392-19.779-23.32-33.084-39.133-21.181-4.262-14.559-24.344-15.692-33.159-4.041-3.107-7.612-9.951-12.382-16.751-13.947 2.666-5.468 4.679-11.231 5.988-17.183 4.02-.546 53.041 1.176 55.185-1.701 3.519 9.222 10.734 14.623 17.746 19.853zm-344.988-16.956-.133 34.723c-5.759 2.571-10.805 7.676-12.26 14.631-1.983-1.367-4.086-2.335-6.232-2.975l1.38-46.303zm77.102 9.22c-5.681-.185-11.378-.301-17.083-.34l.157-9.145 17.023-.075c.01 3.179-.027 6.367-.097 9.56zm-24.083-.338c-6.848.027-13.7.149-20.544.386l-.205-9.41 20.906-.092zm-27.75-8.993.21 9.669c-6.189.28-12.366.645-18.52 1.098l.041-10.686zm-18.337 17.785c6.213-.462 12.45-.831 18.7-1.116l.264 12.145c.002.102.025.197.036.296-2.284 1.986-3.948 4.573-4.872 7.605-4.298-3.193-9.382-4.238-14.186-3.751zm25.893 7.739-.199-9.145c6.753-.235 13.515-.358 20.272-.386l-.239 13.96c-5.823-4.627-13.416-6.147-19.834-4.429zm27.074-9.532c5.674.037 11.338.152 16.987.337-.12 2.982-.277 5.958-.466 8.928-5.077-2.995-11.759-2.672-16.688.449zm24.299-16.251 24.569-.108v20.124c-3.126 2.083-5.302 5.161-6.641 8.792-5.576-5.915-12.24-9.159-18.487-6.51.403-7.427.583-14.892.559-22.298zm31.57-.139 149.091-.655c-1.412 5.796-3.552 11.385-6.386 16.638-4.737.412-9.556 2.188-13.491 5.668-3.112-6.065-10.27-9.057-17.353-7.708-5.702 1.097-10.56 4.758-14.048 10.407-8.668-14.974-29.81-15.782-39.691-1.715-8.654-14.923-32.663-11.777-37.106 4.923-6.379-6.831-13.092-10.485-21.016-9.921zm233.453-118.476c2.839 12.464-3.525 26.131-14.766 32.109l-.33-32.014c5.098.518 10.232.496 15.096-.095zm-14.403 67.278-.284-27.515c15.799-6.292 25.141-24.492 21.578-40.985 2.638-.625 5.092-1.386 7.347-2.245 9.054 26.666-4.158 59.105-28.641 70.745zm-141.674-157.558c-13.714-16.175-6.484-42.349 15.577-45.066 2.473-.265 3.854-3.298 2.476-5.345-12.024-19.241 6.167-45.123 28.325-40.379 2.511.644 4.911-1.945 4.121-4.394-20.597-70.637 89.933-78.173 79.182-5.444-.431 2.422 2.052 4.598 4.393 3.885 35.331-9.719 58.075 36.073 29.02 58.36-2.745 1.968-.982 6.621 2.384 6.269 29.859-2.02 37.181 39.368 8.45 47.718-3.402.918-3.32 5.906.07 6.752 43.694 12.496 14.086 67.447-33.088 60.969l-.711-68.982c-.081-7.787-6.482-14.122-14.269-14.122h-125.783c-.051-.073-.09-.151-.147-.221zm-86.936.221h-25.512l.616-41.364 24.896-.384zm-32.154-24.153-21.449.43.351-17.204 21.353-.329zm-28.453.571-15.896.319-.052-17.303 16.3-.252zm-22.896.459-17.71.355.16-17.42 17.498-.27zm-17.774 7.358 17.794-.357.049 16.122h-17.988zm24.843 15.765-.049-16.262 15.733-.315-.338 16.578h-15.346zm22.688-16.718 21.487-.431-.255 17.149h-21.573zm-73.253-23.07 18.945-.292-.368 40.08h-18.577zm-20.265 54.057c0-4.008 3.261-7.269 7.269-7.269h352.86c3.967 0 7.227 3.228 7.269 7.194l1.846 179.094c.122 3.922-3.312 7.409-7.236 7.344-.01.008-354.724 1.554-354.738 1.559-3.898.077-7.357-3.359-7.269-7.269-.001.001-.001-180.653-.001-180.653zm-2.798 190.766c4.52 5.301 13.444 4.066 19.605 4.116l-1.351 45.319c-8.697.211-16.549 4.67-20.975 12.396l-16.99-183.607 15.509-1.9v113.565c0 3.822 1.493 7.413 4.202 10.111zm-38.32-119.496 11.657-1.428 17.894 193.378c-6.051-1.359-11.281-1.411-15.666-.148zm481.008 230.245c-1.302 4.229-7.577 14.014-31.153 12.716-150.975-.811-299.262 2.894-451.035-2.058-5.718-.201-11.863-.931-14.288-4.773-5.002-13.306 14.899-16.37 24.467-13.912 3.713.977 6.047-4.02 2.912-6.239-4.04-2.659-5.07-10.037-1.959-13.683 4.657-5.548 13.109-5.927 25.831-1.163 2.566 1.036 5.367-1.509 4.617-4.151-4.731-18.389 19.517-29.271 30.112-13.484 2.183 3.21 7.192.985 6.312-2.761-3.808-15.782 18.08-24.524 26.193-10.446 1.905 3.266 6.957 1.553 6.504-2.177-2.293-17.12 21.253-16.497 25.934-2.213 1.323 4.041 7.686 2.269 6.728-1.876-1.604-7.994 5.447-11.833 11.536-9.957 1.964.694 4.463 2.428 5.218 6.749.785 4.153 6.857 3.65 6.948-.579.016-2.395.394-8.033 3.555-8.675 3.777-.763 10.629 4.112 13.839 11.544 1.433 3.585 7.124 2.159 6.701-1.675-.581-7.077 3.033-14.424 10.42-13.865 8.255.695 14.677 8.387 18.611 14.718 1.874 3.226 7.149 1.237 6.425-2.425-3.638-20.121 25.761-23.511 26.782-3.071.291 4.173 6.396 4.399 6.963.242 1.362-10.214 9.378-14.592 16.627-14.403 7.292.191 15.02 4.982 15.846 15.257.199 3.799 5.932 4.351 6.86.662 2.311-8.267 6.909-13.637 12.612-14.735 5.835-1.231 12.772 3.26 10.094 9.041-3.12 6.736 4.186 9.556 6.528 2.559 5.884-17.576 33.345-10.303 31.905 8.823-.435 4.05 5.739 5.236 6.834 1.309 5.918-20.722 31.13-14.002 23.832 1.159-3.2 4.875 4.111 8.64 6.223 3.208 11.248-21.264 42.599-4.833 31.394 16.625-1.896 3.565 3.263 6.973 5.798 3.834 15.358-19 40.112 5.071 22.551 20.544-7.922 4.088-1.661 12.161 4.291 5.539 5.621-3.857 11.168-4.419 15.516-1.477 4.735 3.204 6.803 9.626 4.916 15.269z"/><path d="m249.202 246.881c1.962-.041 3.583-1.915 3.334-3.863l-2.434-23.151c-.186-1.766-1.665-3.114-3.441-3.134l-28.864-.325c-1.878-.056-3.585 1.604-3.539 3.5v24.788c-.04 1.934 1.716 3.619 3.647 3.497-.002 0 31.297-1.312 31.297-1.312zm-27.945-23.434 22.209.25 1.719 16.346-23.928 1.003z"/><path d="m271.06 277.735v35.087c-.235 5.732 10.838 2.838 13.91 3.5l-.502 10.959c-.043.939.293 1.855.934 2.544.64.688 1.53 1.09 2.47 1.115l60.993 1.624c1.908.054 3.523-1.45 3.591-3.37l1.299-35.253c.11-1.926-1.57-3.668-3.498-3.629h-10.47v-12.577c0-1.933-1.567-3.5-3.5-3.5h-61.727c-1.932 0-3.5 1.567-3.5 3.5zm74.528 47.739-53.964-1.437 1.225-26.726h53.777zm-67.528-44.239h54.727v9.077h-43.282c-1.871 0-3.411 1.471-3.496 3.34l-.718 15.67h-7.23v-28.087z"/><path d="m221.067 264.598c-4.475.355-4.285 6.898.198 6.994.188.006 29.901-1.725 30.106-1.731 4.586-.373 4.227-7.145-.403-6.988.001 0-29.901 1.725-29.901 1.725z"/><path d="m250.969 277.91-29.901 1.726c-4.602.382-4.209 7.141.402 6.988 0 0 29.901-1.726 29.901-1.726 4.586-.375 4.229-7.136-.402-6.988z"/><path d="m254.664 296.24c-.111-1.929-1.752-3.407-3.695-3.293l-29.901 1.726c-1.931.111-3.404 1.766-3.293 3.696.106 1.933 1.786 3.409 3.695 3.293l29.901-1.726c1.931-.112 3.404-1.766 3.293-3.696z"/><path d="m265.92 309.671-29.902 1.726c-4.602.382-4.209 7.141.402 6.988 0 0 29.902-1.726 29.902-1.726 4.593-.38 4.219-7.129-.402-6.988z"/><path d="m265.92 324.709-29.902 1.725c-4.602.382-4.209 7.141.402 6.988 0 0 29.902-1.725 29.902-1.725 4.594-.377 4.217-7.139-.402-6.988z"/><path d="m265.92 339.746-29.902 1.726c-4.602.382-4.209 7.141.402 6.988 0 0 29.902-1.726 29.902-1.726 4.593-.38 4.219-7.129-.402-6.988z"/><path d="m258.818 267.586c1.059 1.635 3.242 2.074 4.841 1.031l34.55-22.419c1.621-1.052 2.083-3.22 1.03-4.841-1.052-1.623-3.22-2.082-4.841-1.031l-34.55 22.419c-1.621 1.052-2.083 3.219-1.03 4.841z"/><path d="m223.6 213.508c3.431.047 4.839-4.634 1.863-6.465 0 0-15.246-9.566-15.246-9.566-3.965-2.35-7.573 3.373-3.721 5.93 0 0 15.246 9.566 15.246 9.566.579.362 1.223.535 1.858.535z"/><path d="m361.21 336.891 16.94 5.389c4.403 1.295 6.505-5.146 2.123-6.671 0 0-16.94-5.389-16.94-5.389-4.431-1.287-6.488 5.159-2.123 6.671z"/><path d="m85.493 86.341c2.109 5.651 7.841 8.428 16.857 8.27 59.708.477 118.213-1.756 177.652-2.497 1.28-.016 2.448-.729 3.049-1.858 7.51-14.148 2.088-29.97-6.826-37.675-7.045-6.09-15.639-7.416-23.915-3.947.798-19.208-10.434-34.615-29.304-38.153-23.317-4.673-48.855 10.845-55.918 33.982-20.087-11.833-49.107 1.848-52.656 24.899-10.789-1.737-31.513 2.58-28.939 16.979zm9.094-6.337c12.869-9.045 25.814 1.677 26.396-6.112.561-21.777 29.106-34.876 45.972-21.097 1.9 1.606 5.089.504 5.587-1.935 6.053-25.683 29.733-37.204 49.154-33.502 20.454 3.899 25.337 21.724 23.085 37.105-.536 2.967 3.164 5.193 5.534 3.328 17.337-13.154 35.283 9.128 27.429 27.351-58.746.764-116.35 2.942-175.427 2.469-9.905-.079-12.75-3.107-7.73-7.607z"/></g></g></svg>