<svg id="Layer_1" enable-background="new 0 0 512 512" height="60px" viewBox="0 0 512 512" width="50px" xmlns="http://www.w3.org/2000/svg"><g><path d="m15 512h482c8.284 0 15-6.716 15-15v-482c0-8.284-6.716-15-15-15h-482c-8.284 0-15 6.716-15 15v482c0 8.284 6.716 15 15 15z" fill="#08475e"/><path d="m512 497v-482c0-8.284-6.716-15-15-15h-241.001v512h241.001c8.284 0 15-6.716 15-15z" fill="#05303d"/><path d="m311.165 432.732v-180.688l46.694 46.694c5.858 5.858 15.355 5.858 21.213 0l48.2-48.2c5.858-5.858 5.858-15.355 0-21.213l-160.665-160.665c-5.858-5.858-15.355-5.858-21.213 0l-160.667 160.667c-5.858 5.858-5.858 15.355 0 21.213l48.198 48.199c5.858 5.858 15.355 5.858 21.213 0l46.694-46.694-.001 180.688c0 8.284 6.716 15 15 15h80.334c8.285-.001 15.001-6.717 15-15.001z" fill="#f4f1f1"/><path d="m311.165 432.732v-180.688l46.694 46.694c5.858 5.858 15.355 5.858 21.213 0l48.2-48.2c5.858-5.858 5.858-15.355 0-21.213l-160.665-160.665c-2.929-2.929-6.768-4.394-10.607-4.393v383.465h40.166c8.284 0 15-6.716 14.999-15z" fill="#e7dfdd"/></g></svg>